<svg xmlns="http://www.w3.org/2000/svg" xmlns:xlink="http://www.w3.org/1999/xlink" width="143.3" height="88.031" viewBox="0 0 143.3 88.031">
  <defs>
    <clipPath id="clip-path">
      <rect id="Rectángulo_1027" data-name="Rectángulo 1027" width="143.3" height="88.031" transform="translate(0 0)" fill="none"/>
    </clipPath>
  </defs>
  <g id="logo-pentar-kloft-retarder" transform="translate(0 0.001)">
    <g id="Grupo_2052" data-name="Grupo 2052" transform="translate(0 -0.001)" clip-path="url(#clip-path)">
      <path id="Trazado_1071" data-name="Trazado 1071" d="M33.375,300.441c0-2.9-1.091-4.8-4.8-4.8H22.4v9.947h6.3c3.148,0,4.676-1.372,4.676-5.145m.249,15.279-4.583-9.043H22.4v9.043H21.215V294.548h7.67c4.022,0,5.706,2.276,5.706,6.018,0,3.368-1.371,5.457-4.3,5.987l4.646,9.168Z" transform="translate(-18.041 -250.477)"/>
      <path id="Trazado_1072" data-name="Trazado 1072" d="M28.521,161.164c0-1.716-.58-2.246-2.2-2.246H24.458v4.291h1.969c1.539,0,2.094-.53,2.094-2.045m4.543,0c0,3.483-1.943,5.679-6.285,5.679H24.458v5.578H19.967V155.284h6.587c4.542,0,6.511,1.994,6.511,5.88" transform="translate(-16.98 -132.05)"/>
      <path id="Trazado_1073" data-name="Trazado 1073" d="M119.748,188.921h3.836c-.1-1.691-.5-2.524-1.792-2.524-1.412,0-1.943.858-2.044,2.524m6.486,3.558,1.01,2.574a11.893,11.893,0,0,1-5.452,1.262c-4.164,0-6.511-2.17-6.511-6.637,0-4.366,2.094-6.562,6.335-6.562,4.391,0,5.88,2.4,5.88,7.874h-7.7c.252,1.439,1.01,2.019,3.054,2.019a11.527,11.527,0,0,0,3.382-.53" transform="translate(-98.033 -155.719)"/>
      <path id="Trazado_1074" data-name="Trazado 1074" d="M222.586,188.973v7.117h-4.341v-7.218c0-1.666-.656-2.448-1.867-2.4a2.461,2.461,0,0,0-1.994,1.54v8.075h-4.341v-9.918l-.127-2.347,3.937-.479.4,1.489v-.076a5.27,5.27,0,0,1,3.786-1.64c2.952,0,4.542,1.918,4.542,5.855" transform="translate(-178.509 -155.72)"/>
      <path id="Trazado_1075" data-name="Trazado 1075" d="M314.453,172.041l-.151,3.028a5.959,5.959,0,0,1-2.019.3c-2.978,0-4.795-1.362-4.795-4.391v-5.754h-1.237V162.25h1.237l.555-3.635,3.785-.126v3.761H314.4l-.227,2.978h-2.347V169.8c0,1.867.278,2.347,1.414,2.347a9.879,9.879,0,0,0,1.211-.1" transform="translate(-260.429 -134.776)"/>
      <path id="Trazado_1076" data-name="Trazado 1076" d="M373.267,193.466a3.063,3.063,0,0,0,2.145-.833v-2.347c-2.751.1-3.608.934-3.608,1.944,0,.732.53,1.236,1.463,1.236m6.486-5.679v8.3H376.9l-.959-1.412a6.016,6.016,0,0,1-4.138,1.64,3.836,3.836,0,0,1-4.164-4.063c.075-2.2,1.69-3.913,7.773-4.013v-.3c0-.959-1.034-1.287-2.5-1.287a11.574,11.574,0,0,0-3.483.555l-1.035-3.129a16.867,16.867,0,0,1,5.325-.959c3.458,0,6.032,1.438,6.032,4.668" transform="translate(-312.63 -155.72)"/>
      <path id="Trazado_1077" data-name="Trazado 1077" d="M474.754,183.421l-.278,3.331a3.158,3.158,0,0,0-1.009-.126,5.038,5.038,0,0,0-3.836,1.741v7.722H465.29v-9.918l-.126-2.347,3.937-.479.429,1.539a4.457,4.457,0,0,1,3.609-1.766,4.6,4.6,0,0,1,1.615.3" transform="translate(-395.566 -155.72)"/>
      <path id="Trazado_1078" data-name="Trazado 1078" d="M577.432,165.378h-1.666v7.041h-4.491V155.282h4.491v6.461h1.565l2.5-6.461h4.846l-3.709,8.2,4.315,8.933h-4.948Z" transform="translate(-485.8 -132.049)"/>
      <path id="Trazado_1079" data-name="Trazado 1079" d="M673.164,163.666V150.014l4.316-.127V162.48c0,1.741.252,2.347,1.414,2.347a8.218,8.218,0,0,0,1.236-.1l-.151,3.029a6.244,6.244,0,0,1-2.095.3c-2.928,0-4.72-1.362-4.72-4.391" transform="translate(-572.445 -127.461)"/>
      <path id="Trazado_1080" data-name="Trazado 1080" d="M733.269,189.728c0-2.423-.5-3.408-2.02-3.408-1.488,0-2.018.985-2.018,3.408,0,2.4.53,3.381,2.018,3.381,1.515,0,2.02-.984,2.02-3.381m-8.48-.051c0-4.315,2.221-6.562,6.46-6.562s6.486,2.246,6.486,6.562c0,4.366-2.245,6.638-6.486,6.638s-6.46-2.272-6.46-6.638" transform="translate(-616.345 -155.717)"/>
      <path id="Trazado_1081" data-name="Trazado 1081" d="M828.211,157.49h-2.6v9.767h-4.341V157.49h-1.338v-2.978h1.338v-.555c0-3.483,1.666-4.745,4.82-4.745a12.435,12.435,0,0,1,2.2.227l-.252,2.726a7.09,7.09,0,0,0-1.111-.126c-1.035,0-1.312.555-1.312,1.918v.555h2.826Z" transform="translate(-697.254 -126.887)"/>
      <path id="Trazado_1082" data-name="Trazado 1082" d="M890.556,172.041l-.152,3.028a5.958,5.958,0,0,1-2.019.3c-2.979,0-4.795-1.362-4.795-4.391v-5.754h-1.237V162.25h1.237l.555-3.635,3.785-.126v3.761H890.5l-.228,2.978h-2.346V169.8c0,1.867.277,2.347,1.413,2.347a9.889,9.889,0,0,0,1.212-.1" transform="translate(-750.334 -134.776)"/>
      <path id="Trazado_1083" data-name="Trazado 1083" d="M156.576,314.631v1.091H144.821V294.551h11.5l-.124,1.091h-10.2v7.982h8.575v1.092h-8.575v9.915Z" transform="translate(-123.153 -250.48)"/>
      <path id="Trazado_1084" data-name="Trazado 1084" d="M252.437,295.642H246.2v20.08h-1.186v-20.08h-6.39v-1.091h13.937Z" transform="translate(-202.921 -250.48)"/>
      <path id="Trazado_1085" data-name="Trazado 1085" d="M342.1,308.459l-4.584-11.786-.125-.905-.124.905-4.584,11.786Zm.436,1.091H332.279l-2.4,6.174h-1.216l8.294-21.17h.936l8.294,21.17h-1.248Z" transform="translate(-279.488 -250.482)"/>
      <path id="Trazado_1086" data-name="Trazado 1086" d="M482.978,300.441c0-2.9-1.092-4.8-4.8-4.8H472v9.947h6.3c3.148,0,4.677-1.372,4.677-5.145m.248,15.279-4.583-9.043H472v9.043h-1.184V294.548h7.67c4.022,0,5.706,2.276,5.706,6.018,0,3.368-1.371,5.457-4.3,5.987l4.646,9.168Z" transform="translate(-400.373 -250.477)"/>
      <path id="Trazado_1087" data-name="Trazado 1087" d="M608.519,305.275c0-7.733-2.837-9.635-9.011-9.635h-3.9v18.989h3.9c6.609,0,9.011-2.151,9.011-9.354m1.215-.124c0,7.763-2.68,10.571-10.226,10.571h-5.082V294.549h5.082c7.887,0,10.226,3.367,10.226,10.6" transform="translate(-505.487 -250.478)"/>
      <path id="Trazado_1088" data-name="Trazado 1088" d="M742.7,314.631v1.091H730.95V294.551h11.5l-.124,1.091h-10.2v7.982h8.575v1.092h-8.575v9.915Z" transform="translate(-621.585 -250.48)"/>
      <path id="Trazado_1089" data-name="Trazado 1089" d="M852.542,300.441c0-2.9-1.092-4.8-4.8-4.8h-6.174v9.947h6.3c3.148,0,4.677-1.372,4.677-5.145m.248,15.279-4.583-9.043h-6.642v9.043h-1.184V294.548h7.67c4.022,0,5.706,2.276,5.706,6.018,0,3.368-1.371,5.457-4.3,5.987l4.646,9.168Z" transform="translate(-714.642 -250.477)"/>
      <path id="Trazado_1090" data-name="Trazado 1090" d="M378.864,17.006l86.614.13-2.292-4.992Zm19.045-2.454,64.881-3.281L460.5,6.279ZM457.621,0,414.493,11.389l45.4-6.426Z" transform="translate(-322.178 0)" fill="#c90505"/>
      <path id="Trazado_1091" data-name="Trazado 1091" d="M8.388,486l3.42,4.966,46.459-11.82Zm-4.345-6.308,3.444,5,68.857-8.87Zm-.6-.873,93.865-4.839L0,473.826Z" transform="translate(0 -402.932)" fill="#034492"/>
    </g>
  </g>
</svg>
